<svg viewBox="0 0 24 24" fill="none" xmlns="http://www.w3.org/2000/svg">
<path fill-rule="evenodd" clip-rule="evenodd" d="M12 2C6.47656 2 2 6.47656 2 12C2 16.4164 4.86563 20.1645 8.83828 21.4902C9.33672 21.5832 9.52305 21.2711 9.52305 21.0082C9.52305 20.7672 9.51211 19.9836 9.51211 19.1453C6.72852 19.748 6.14219 17.9672 6.14219 17.9672C5.6875 16.8109 5.02969 16.5043 5.02969 16.5043C4.11992 15.8852 5.09531 15.8961 5.09531 15.8961C6.09805 15.9672 6.62969 16.9262 6.62969 16.9262C7.52266 18.4551 8.96953 18.0109 9.53945 17.759C9.62695 17.1125 9.89023 16.6742 10.175 16.4219C7.95586 16.1699 5.61602 15.3094 5.61602 11.4793C5.61602 10.3891 6.00508 9.4957 6.64609 8.79453C6.5418 8.54258 6.20234 7.52344 6.74453 6.14805C6.74453 6.14805 7.58281 5.87969 9.49531 7.17266C10.2953 6.95352 11.15 6.83828 11.9996 6.83828C12.8488 6.84375 13.7039 6.95352 14.5039 7.17266C16.4109 5.87969 17.2492 6.14805 17.2492 6.14805C17.7918 7.52344 17.452 8.54258 17.3477 8.79453C17.9887 9.49609 18.3777 10.3891 18.3777 11.4793C18.3777 15.3203 16.0379 16.1641 13.8133 16.4109C14.1695 16.7234 14.4926 17.3316 14.4926 18.2629C14.4926 19.6 14.4816 20.6793 14.4816 21.0082C14.4816 21.2766 14.6625 21.5836 15.1664 21.4902C19.1398 20.1645 22 16.4219 22 12C22 6.47656 17.5234 2 12 2Z" fill="white"/>
<path d="M5.78634 16.3563C5.76447 16.4055 5.68791 16.4219 5.61642 16.3891C5.54533 16.3563 5.50119 16.2907 5.52892 16.241C5.5508 16.1918 5.62736 16.1754 5.69884 16.2082C5.76994 16.241 5.81369 16.3071 5.78634 16.3563Z" fill="white"/>
<path d="M6.19179 16.8109C6.14257 16.8547 6.04921 16.8328 5.98905 16.7672C5.92343 16.6961 5.91249 16.6027 5.96171 16.559C6.01093 16.5152 6.09882 16.5371 6.16444 16.6027C6.23007 16.6738 6.24101 16.7672 6.19179 16.8109Z" fill="white"/>
<path d="M6.58632 17.3863C6.52616 17.4301 6.42733 17.3918 6.36171 17.2988C6.30155 17.2113 6.30155 17.1015 6.36171 17.0578C6.42186 17.014 6.52069 17.0523 6.58632 17.1398C6.65194 17.2328 6.65194 17.3426 6.58632 17.3863Z" fill="white"/>
<path d="M7.1289 17.9398C7.07421 18 6.95898 17.9836 6.87148 17.9015C6.78398 17.8195 6.76171 17.7043 6.81679 17.6441C6.87187 17.584 6.99218 17.6004 7.07421 17.6824C7.16171 17.7699 7.18359 17.8847 7.1289 17.9398Z" fill="white"/>
<path d="M7.87384 18.2629C7.85197 18.3395 7.73673 18.3781 7.62189 18.3449C7.50665 18.3121 7.43556 18.2188 7.45743 18.1422C7.47931 18.0656 7.59454 18.027 7.70939 18.0602C7.81915 18.093 7.89572 18.1864 7.87384 18.2629Z" fill="white"/>
<path d="M8.69023 18.3235C8.6957 18.4055 8.59726 18.477 8.47656 18.477C8.35585 18.4824 8.26288 18.4114 8.25742 18.3289C8.25742 18.2469 8.35038 18.1754 8.47109 18.1754C8.59179 18.1754 8.69023 18.241 8.69023 18.3235Z" fill="white"/>
<path d="M9.45196 18.1973C9.46837 18.2793 9.38634 18.3617 9.26564 18.3836C9.1504 18.4055 9.04103 18.3563 9.03009 18.2738C9.01368 18.1918 9.10118 18.1094 9.21642 18.0875C9.33165 18.0656 9.43556 18.1152 9.45196 18.1973Z" fill="white"/>
</svg>
