<svg viewBox="0 0 24 24" fill="none" xmlns="http://www.w3.org/2000/svg">
<path fill-rule="evenodd" clip-rule="evenodd" d="M8.85198 2.40867C5.72784 2.65036 3.07156 2.86184 2.95083 2.87695C2.6037 2.95248 2.28676 3.17907 2.13583 3.49629L2 3.76819L2.01509 10.3241L2.03018 16.88L2.22639 17.2878C2.34713 17.5144 3.10175 18.5718 3.93184 19.6443C5.57691 21.7893 5.69765 21.8951 6.31644 21.9706C6.49755 21.9857 7.87097 21.9253 9.33494 21.8347C10.814 21.744 13.1986 21.593 14.6173 21.5174C20.6996 21.1398 20.3826 21.17 20.7448 20.8679C21.1825 20.5053 21.1372 21.1096 21.1674 13.1337C21.1825 6.38148 21.1674 5.92831 21.0618 5.73194C20.9561 5.49024 20.7448 5.33919 17.9678 3.39055C16.1115 2.07635 15.9756 2.01592 15.1455 2.00082C14.7984 1.98571 11.961 2.18209 8.85198 2.40867ZM15.87 3.2697C16.1416 3.39055 18.0584 4.71985 18.33 4.97665C18.4055 5.05218 18.4357 5.12771 18.3904 5.15792C18.315 5.23345 6.43718 5.94342 6.09006 5.88299C5.93913 5.86789 5.71275 5.77725 5.57691 5.68662C5.03359 5.30897 3.69036 4.20626 3.69036 4.13073C3.69036 3.91925 3.64508 3.91925 8.92744 3.5265C9.93864 3.46607 11.6139 3.34523 12.6251 3.25459C14.8135 3.08843 15.4625 3.08843 15.87 3.2697ZM19.6431 6.6836C19.7336 6.77423 19.8091 6.94039 19.8393 7.10656C19.8544 7.25762 19.8695 10.0673 19.8544 13.3301C19.8393 18.9192 19.8242 19.2818 19.7186 19.4328C19.6582 19.5386 19.5374 19.6443 19.4318 19.6745C19.1752 19.7803 6.73903 20.4902 6.48246 20.4147C6.36172 20.3845 6.1957 20.2788 6.12024 20.1881L5.96932 20.0371L5.95423 13.9948C5.93913 9.75006 5.95423 7.87695 5.9995 7.71079C6.02969 7.58994 6.13533 7.43888 6.2108 7.37846C6.31644 7.30293 7.05598 7.24251 9.59151 7.09145C11.3724 7.00082 14.1343 6.83465 15.704 6.72891C19.4771 6.50233 19.462 6.50233 19.6431 6.6836Z" fill="white"/>
<path fill-rule="evenodd" clip-rule="evenodd" d="M16.3077 8.75309C15.6285 8.79841 15.0248 8.85883 14.9645 8.90415C14.7532 9.00989 14.6324 9.19116 14.6023 9.38753C14.5872 9.58391 14.6475 9.61412 15.3267 9.70475L15.6134 9.73497V12.4087C15.6134 13.9948 15.5984 15.0371 15.5531 15.0069C15.5229 14.9767 14.6475 13.6171 13.5911 12.0159C12.5346 10.3845 11.6592 9.05521 11.6441 9.05521C11.629 9.0401 10.9499 9.07031 10.1198 9.13074C9.1086 9.19116 8.55018 9.26669 8.44453 9.32711C8.26342 9.41774 8.05212 9.75007 8.05212 9.96155C8.05212 10.0975 8.2936 10.173 8.79165 10.173H9.06332V17.8467L8.62564 17.9827C8.3087 18.0733 8.18796 18.1338 8.12759 18.2697C8.03703 18.4812 8.03703 18.6625 8.14268 18.6625C8.17286 18.6625 8.88221 18.6322 9.6972 18.5718C11.297 18.4812 11.4781 18.4359 11.6441 18.1035C11.7045 18.0129 11.7498 17.9072 11.7498 17.8619C11.7498 17.8467 11.5234 17.7712 11.2668 17.7108C10.9952 17.6504 10.7235 17.5748 10.6631 17.5748C10.5575 17.5446 10.5575 17.3483 10.5575 14.6594V11.7742L12.4591 14.7501C14.4513 17.877 14.6928 18.2395 15.0097 18.3906C15.3871 18.5869 16.353 18.451 16.8359 18.1338L16.9869 18.0431L17.002 13.7833L17.017 9.50838L17.3491 9.44796C17.7415 9.37243 17.9226 9.19116 17.9226 8.87394C17.9226 8.67756 17.9075 8.66246 17.7264 8.67756C17.6207 8.67756 16.9718 8.72288 16.3077 8.75309Z" fill="white"/>
</svg>
